<svg width="35" height="40" viewBox="0 0 35 40" fill="none" xmlns="http://www.w3.org/2000/svg">
<path d="M20.4168 36.6653L20.4168 11.3548L30.0047 22.3593C30.5534 22.9873 31.2977 23.34 32.0738 23.34C32.8499 23.34 33.5942 22.9873 34.1429 22.3593C34.6917 21.7314 35 20.8797 35 19.9917C35 19.1036 34.6917 18.252 34.1429 17.624L19.5716 0.95044C19.2945 0.646845 18.9676 0.408863 18.6099 0.250149C17.9004 -0.083383 17.1046 -0.083383 16.3951 0.250149C16.0373 0.408863 15.7105 0.646845 15.4334 0.95044L0.862037 17.624C0.588888 17.934 0.372078 18.3029 0.224125 18.7092C0.0761717 19.1156 6.9434e-08 19.5515 6.9434e-08 19.9917C6.9434e-08 20.4319 0.0761717 20.8678 0.224125 21.2741C0.372078 21.6805 0.588888 22.0493 0.862037 22.3593C1.13296 22.6719 1.45527 22.92 1.8104 23.0893C2.16553 23.2586 2.54645 23.3457 2.93116 23.3457C3.31588 23.3457 3.69679 23.2586 4.05192 23.0893C4.40705 22.92 4.72937 22.6719 5.00029 22.3593L14.5882 11.3548L14.5882 36.6653C14.5882 37.5497 14.8953 38.3979 15.4418 39.0233C15.9883 39.6487 16.7296 40 17.5025 40C18.2754 40 19.0167 39.6487 19.5632 39.0233C20.1097 38.3979 20.4168 37.5497 20.4168 36.6653Z" fill="white"/>
</svg>
